HIERARCHY
ROOT Hips
{
  OFFSET 40.9192 92.6879 18.85
  CHANNELS 6 Xposition Yposition Zposition Zrotation Xrotation Yrotation
  JOINT LeftUpLeg
  {
    OFFSET 8.64259 1.95398 -2.38835
    CHANNELS 3 Zrotation Xrotation Yrotation
    JOINT LeftLeg
    {
      OFFSET 43.7702 0 0
      CHANNELS 3 Zrotation Xrotation Yrotation
      JOINT LeftFoot
      {
        OFFSET 40.6238 0 0
        CHANNELS 3 Zrotation Xrotation Yrotation
        JOINT LeftToeBase
        {
          OFFSET 12.7242 0 0
          CHANNELS 3 Zrotation Xrotation Yrotation
          End Site
          {
            OFFSET 0 0 0
          }
        }
      }
    }
  }
  JOINT RightUpLeg
  {
    OFFSET -8.2249 1.95398 -2.59336
    CHANNELS 3 Zrotation Xrotation Yrotation
    JOINT RightLeg
    {
      OFFSET 43.5653 0 0
      CHANNELS 3 Zrotation Xrotation Yrotation
      JOINT RightFoot
      {
        OFFSET 40.6238 0 0
        CHANNELS 3 Zrotation Xrotation Yrotation
        JOINT RightToeBase
        {
          OFFSET 12.7242 0 0
          CHANNELS 3 Zrotation Xrotation Yrotation
          End Site
          {
            OFFSET 0 0 0
          }
        }
      }
    }
  }
  JOINT Spine
  {
    OFFSET 0.165834 0.87714 6.61349
    CHANNELS 3 Zrotation Xrotation Yrotation
    JOINT Spine1
    {
      OFFSET 7.38963 1.71661e-005 0
      CHANNELS 3 Zrotation Xrotation Yrotation
      JOINT Spine2
      {
        OFFSET 11.9445 1.14441e-005 0
        CHANNELS 3 Zrotation Xrotation Yrotation
        JOINT Spine3
        {
          OFFSET 14.7254 4.19617e-005 0
          CHANNELS 3 Zrotation Xrotation Yrotation
          JOINT Spine4
          {
            OFFSET 10.9679 0 0
            CHANNELS 3 Zrotation Xrotation Yrotation
            JOINT RightShoulder
            {
              OFFSET 2.46616 -1.6653 3.69651
              CHANNELS 3 Zrotation Xrotation Yrotation
              JOINT RightArm
              {
                OFFSET 13.0012 0 0
                CHANNELS 3 Zrotation Xrotation Yrotation
                JOINT RightForeArm
                {
                  OFFSET 28.7848 1.52588e-005 0
                  CHANNELS 3 Zrotation Xrotation Yrotation
                  JOINT RightHand
                  {
                    OFFSET 26.5688 1.52588e-005 0
                    CHANNELS 3 Zrotation Xrotation Yrotation
                    End Site
                    {
                      OFFSET 0 0 0
                    }
                  }
                }
              }
            }
            JOINT LeftShoulder
            {
              OFFSET 2.38034 -1.29275 -3.7523
              CHANNELS 3 Zrotation Xrotation Yrotation
              JOINT LeftArm
              {
                OFFSET 16.3182 6.10351e-005 0
                CHANNELS 3 Zrotation Xrotation Yrotation
                JOINT LeftForeArm
                {
                  OFFSET 27.0901 0 0
                  CHANNELS 3 Zrotation Xrotation Yrotation
                  JOINT LeftHand
                  {
                    OFFSET 24.5451 1.52588e-005 0
                    CHANNELS 3 Zrotation Xrotation Yrotation
                    End Site
                    {
                      OFFSET 0 0 0
                    }
                  }
                }
              }
            }
            JOINT Neck
            {
              OFFSET 5.0226 -0.0266342 0
              CHANNELS 3 Zrotation Xrotation Yrotation
              JOINT Head
              {
                OFFSET 6.69363 2.86102e-005 0
                CHANNELS 3 Zrotation Xrotation Yrotation
                End Site
                {
                  OFFSET 0 0 0
                }
              }
            }
          }
        }
      }
    }
  }
}
MOTION
Frames:	17
Frame Time:	0.0416667
306.723 82.5999 176.12 -24.0035 12.2016 79.3248 169.002 85.1164 113.921 -8.75441 -39.3874 -13.4496 4.81232 -37.7776 -36.9694 3.61026 23.1708 -133.495 2.8284 44.7017 -115.712 -56.6883 0.722408 30.418 110.424 -18.365 1.93405 -139.255 26.3226 -6.77835 -4.20812 5.50473 -102.441 13.8655 -14.3503 -23.1156 2.07759 -15.3283 -22.4994 -19.0209 -7.01239 -26.1383 0.991768 -7.01241 -26.1383 58.4912 73.2584 -14.537 41.9476 31.7996 -177.633 -17.3077 -57.1964 -0.00687079 -10.6271 0.835178 -15.0713 32.9149 -43.0491 -128.137 17.0515 -5.47815 -65.3441 -12.8723 42.1996 -8.54686 80.1997 -6.79458 -12.0028 -91.2779 -48.7848 -166.317 73.3035 70.8485 128.93 
306.988 82.5379 176.288 -24.6396 12.3902 79.5395 168.303 85.7095 114.757 -9.34374 -40.0492 -14.1784 5.2415 -38.5458 -35.9296 1.19614 24.4408 -133.292 2.51604 44.0199 -115.682 -56.6159 0.0856782 30.5257 111.453 -18.8073 2.0976 -134.645 -2.17406 -5.26324 -4.19864 5.48867 -102.526 13.8763 -14.3729 -23.2825 2.08567 -15.3576 -22.666 -18.9886 -6.98908 -26.3011 1.0241 -6.98906 -26.3011 57.4321 73.3226 -13.2415 43.1845 33.7249 -178.947 -17.5939 -54.7257 -0.00644567 -11.8384 1.17516 -16.3518 31.5207 -42.0369 -128.68 15.7842 -5.2708 -65.9992 -12.2113 43.4972 -8.76561 79.5988 -6.47192 -11.7122 -91.133 -48.3265 -166.066 78.1263 68.4255 123.604 
307.735 82.36 176.761 -26.4991 12.9033 80.1752 164.158 87.4473 119.318 -11.1229 -41.6463 -16.3499 6.87343 -40.5542 -32.7967 -4.85355 27.5321 -132.577 1.63274 41.9826 -115.638 -56.5881 -1.5986 30.8957 114.19 -19.9282 2.6094 -111.967 -24.822 1.5559 -4.15949 5.43961 -102.762 13.9161 -14.4115 -23.751 2.11761 -15.4152 -23.1345 -18.8867 -6.90021 -26.7511 1.12595 -6.90019 -26.7511 54.52 73.4622 -9.69023 47.1737 39.2931 177.061 -18.1553 -46.9147 -0.00544927 -15.464 2.34557 -20.3174 27.6221 -39.1111 -130.091 12.1227 -4.4837 -67.7143 -10.0143 47.0485 -9.71133 77.8085 -5.7174 -11.0515 -90.6721 -47.7389 -165.04 84.783 62.5013 115.677 
308.861 81.9254 177.479 -29.5969 13.6297 81.2485 46.442 89.3971 -122.208 -14.1181 -43.4471 -19.9939 10.436 -43.1503 -27.5337 -12.1343 31.1279 -131.512 0.210694 38.3547 -115.765 -57.3312 -4.035 31.7398 118.242 -21.3652 3.63461 -83.4833 -25.3724 9.36382 -4.05671 5.35433 -103.122 14.0041 -14.3876 -24.4714 2.19224 -15.4204 -23.8588 -18.6986 -6.68449 -27.4198 1.31403 -6.68449 -27.4198 50.3016 73.5545 -4.53292 55.4001 48.3572 169.438 -17.8285 -31.7021 -0.00437513 -21.4436 4.91572 -27.8223 21.7033 -34.4212 -131.93 6.31101 -2.68003 -69.8462 -5.35125 52.0744 -12.4423 74.7467 -4.98556 -10.5069 -90.0564 -47.7672 -163.002 88.2036 56.131 110.672 
310.275 81.2895 178.401 -33.9698 14.3816 82.7717 1.8967 85.446 -76.4693 -18.5681 -44.8454 -25.0863 16.4371 -45.5489 -20.3593 -18.4186 34.3622 -130.851 -1.50544 33.1493 -116.217 -58.9436 -6.80648 33.0294 122.982 -22.7563 5.13709 -67.0925 -21.2548 11.4675 -3.8474 5.23391 -103.571 14.155 -14.2019 -25.3859 2.3238 -15.2716 -24.7849 -18.4129 -6.26285 -28.2262 1.59977 -6.26285 -28.2262 45.4205 73.5164 1.44781 73.2412 60.4471 153.527 -14.0135 -4.25528 -0.00373262 -27.5164 9.36409 -41.3197 14.2 -28.1659 -133.754 -1.24699 0.539748 -71.3817 3.78252 57.2665 -19.1199 70.1807 -4.70836 -10.6592 -89.5423 -48.1872 -160.155 90.0009 50.9889 107.298 
311.895 80.5446 179.502 -39.4327 14.8697 84.6467 0.568061 78.7043 -72.3279 -28.8987 -43.7378 -33.6138 26.2152 -47.3912 -12.4057 -22.2874 37.006 -131.477 -3.19397 26.6897 -117.034 -61.2621 -9.59674 34.5596 127.901 -23.8563 6.96186 -59.7757 -17.9808 10.845 -3.50906 5.09642 -104.052 14.3531 -13.7828 -26.3946 2.49764 -14.8929 -25.8155 -18.0567 -5.59349 -29.0586 1.95592 -5.59349 -29.0586 40.4802 73.3747 7.43287 120.553 70.2445 110.277 -4.90842 43.0833 -0.00351019 -23.7819 9.67237 -63.135 5.55689 -20.7562 -135.199 -9.94709 5.11671 -71.3172 19.4029 60.3731 -31.9932 63.8436 -5.07101 -12.0075 -89.2473 -48.5588 -156.833 91.6054 47.0284 104.293 
313.669 79.7407 180.773 -45.1575 14.7855 86.5344 -0.690939 74.2988 -67.1759 -36.3438 -42.4817 -44.7077 38.1192 -46.3828 -1.26267 -22.7549 38.9894 -134.199 -4.54548 19.8219 -118.084 -64.1734 -12.2597 35.9746 132.715 -24.5419 8.90351 -56.4162 -15.5535 9.50784 -3.15611 5.00482 -104.59 14.4484 -13.3532 -27.5341 2.56535 -14.5086 -26.9778 -17.7818 -4.88126 -30.0138 2.23083 -4.88127 -30.0138 33.4628 73.2494 15.3765 -172.536 58.5295 50.7221 -170.58 73.6671 179.982 -7.68076 -2.54885 -74.3612 -6.72268 -10.6831 -136.493 -20.7629 12.4365 -66.1785 39.4599 59.2111 -49.8047 55.6626 -5.77091 -14.5949 -89.8153 -49.7404 -153.581 93.1773 43.9832 101.21 
316.322 78.7978 182.235 -43.1733 14.2091 86.9274 -20.9794 72.3586 -45.1051 -41.0796 -33.5701 -57.2824 49.7204 -41.6593 5.05609 -17.6727 39.5452 -140.445 -6.13672 15.5871 -114.621 -67.809 -15.589 35.3502 137.47 -25.2099 10.4674 -54.2794 -13.8427 8.37311 -3.74371 5.39552 -104.963 13.5137 -14.6173 -28.2446 1.64156 -15.8047 -27.6372 -18.725 -5.86858 -31.0149 1.28763 -5.86857 -31.0149 25.4637 73.5504 23.0545 -146.207 37.1623 34.1937 -155.137 30.227 179.985 4.89897 -12.244 -66.6402 -19.9374 -0.538554 -136.904 -32.2391 19.5467 -57.6536 54.4665 53.0135 -63.3977 46.5945 -6.36417 -18.1031 -90.9774 -50.6661 -150.475 94.7685 41.1802 98.5647 
307.964 79.9715 183.213 -133.449 7.26252 97.2075 92.7747 17.3894 -105.198 139.282 -22.2753 113.577 55.1149 -47.9691 60.3796 -13.6259 40.1864 -146.29 -45.4639 -58.9246 -157.312 -71.663 -6.24071 56.8946 138.093 -18.9062 15.4165 -56.4319 -8.27466 2.54502 7.58463 0.197091 -104.23 26.5283 6.12874 -31.5666 14.4915 4.80421 -31.7721 -5.55836 14.9667 -28.7281 14.4542 14.9667 -28.7281 17.165 74.3817 29.6181 -132.66 23.043 29.6122 -143.574 10.4958 179.981 8.98192 -11.6305 -55.8517 -32.0406 7.73615 -136.708 -42.557 23.1972 -47.8262 61.633 44.8266 -70.2252 38.1175 -6.527 -21.7079 -92.4516 -50.6241 -147.616 96.4753 38.3251 96.5064 
308.899 79.2611 183.916 -142.534 5.35081 100.874 104.95 19.8941 -101.749 167.712 -6.33697 116.231 41.4631 -42.6395 44.7304 13.3851 26.0292 -161.986 -72.9761 -32.8722 -173.043 -96.2764 1.81938 75.2276 125.763 -2.31067 20.3272 -60.7946 -0.112395 -5.73758 8.11046 1.4374 -104.473 24.2298 7.41423 -31.9681 12.1881 6.07383 -32.2209 -7.89196 16.3118 -28.7731 12.1207 16.3118 -28.7731 52.5883 62.5137 14.0336 -27.0112 -41.1374 80.0823 -10.2472 -50.8723 -80.3295 -10.1722 4.38482 -42.1639 -67.85 27.8416 -124.638 -68.1946 25.9295 -15.42 63.984 37.2688 -74.3893 31.2648 -6.25977 -24.5818 -87.2645 -45.1663 -130.743 104.365 32.9705 84.9141 
310.11 78.7154 184.623 -150.294 1.74611 104.339 114.274 23.6796 -97.3886 -76.3585 22.7085 84.8179 82.9875 33.8797 -42.3915 36.2523 5.23145 -166.302 -110.08 53.7403 -157.182 101.854 27.7396 -130.591 -108.529 57.0897 -130.122 -5.29232 7.375 2.18235 9.03978 0.798522 -104.604 25.7828 8.86023 -32.967 13.7237 7.48183 -33.2704 -6.30474 17.9684 -29.3691 13.7079 17.9685 -29.3692 41.8422 66.1368 19.5396 -41.4171 -40.2977 67.1259 -15.3346 -55.7356 -85.1424 -6.58477 1.99297 -39.4006 -86.009 33.705 -122.597 -76.7741 20.6774 0.376934 64.4128 31.4118 -76.4383 26.1707 -5.83877 -26.6984 -90.5537 -46.2588 -130.093 104.604 30.3706 85.1929 
311.483 78.2943 185.344 -156.386 -2.83142 107.435 120.334 25.1726 -92.2806 -88.1267 20.7205 86.4831 75.6526 25.6411 -28.8764 54.652 -11.7043 -161.079 112.739 26.4118 25.914 -177.983 -2.03257 -79.7622 24.6974 -40.8338 -116.62 -15.604 -11.9652 17.7506 9.87004 0.412004 -104.863 26.8113 10.1166 -34.1177 14.7303 8.69533 -34.463 -5.20755 19.4803 -30.1741 14.8051 19.4803 -30.1741 30.9219 69.0456 25.6483 -47.8604 -39.5244 59.8906 -11.3199 -59.8685 -84.0178 -4.47591 1.0181 -36.2176 -103.59 38.4306 -119.747 -82.2033 14.2111 13.1184 63.7975 27.0301 -77.5335 22.6056 -5.42824 -28.1418 -93.6631 -46.7802 -128.993 105.137 27.5177 85.212 
312.868 77.9881 186.058 -161.243 -7.7026 110.103 122.865 25.8762 -86.1962 -76.7337 17.5952 81.2917 86.2427 28.1912 -41.3692 69.43 -20.89 -151.35 118.452 2.61492 37.158 -145.798 -9.36563 -68.6128 96.8472 -61.6461 -48.2442 -34.792 -13.4131 13.525 10.616 0.0764828 -105.183 27.7186 11.1835 -35.3454 15.6124 9.71723 -35.724 -4.20301 20.827 -31.115 15.8096 20.827 -31.1149 15.8637 72.2018 34.4357 -58.3327 -37.2665 50.7432 -10.8524 -67.8405 -85.638 -1.94274 -0.051096 -33.3796 -117.037 41.6461 -117.806 -84.547 8.59125 21.2362 62.8561 23.8323 -78.0861 20.1459 -5.08672 -29.0933 -96.9283 -47.2374 -128.37 105.472 24.6187 85.6354 
314.128 77.7945 186.708 -165.386 -12.5032 112.415 121.161 26.2138 -78.6376 -51.3227 12.612 77.1321 106.323 28.4063 -74.5974 79.8158 -23.3243 -140.526 128.61 -5.95131 45.1071 -135.648 -11.2068 -58.6422 115.82 -58.7902 -28.8811 -33.2125 -11.8075 11.8001 6.5458 -1.0136 -98.3946 17.962 6.79357 -21.9436 6.35761 5.75766 -22.1971 -16.1037 13.267 -19.0578 3.90899 13.267 -19.0579 -6.4315 75.4061 48.4633 -74.2688 -30.1047 39.1019 -52.6504 -79.1797 -128.714 1.6303 -1.56912 -31.0192 -124.712 43.6255 -117.427 -85.1257 5.11401 24.5322 61.93 21.5255 -78.3537 18.4436 -4.81551 -29.689 -100.318 -47.6414 -128.279 105.546 21.6019 86.5266 
315.149 77.7335 187.226 -169.254 -17.1346 114.48 120.565 19.6995 -74.3614 -15.27 4.27668 78.9735 143.729 14.9498 -122.542 83.3262 -22.9609 -132.289 136.994 -9.6469 51.8531 -130.727 -11.4981 -52.4225 124.525 -56.2853 -20.4817 -31.0148 -10.1941 10.1295 -14.5947 11.2899 -72.2359 10.6523 -19.2723 38.0915 -1.55166 -17.7227 38.7634 -21.5057 -29.3785 31.4814 -1.49307 -29.3785 31.4814 -41.3224 77.8837 72.393 -94.7425 -9.68529 27.4207 -114.92 -32.1342 179.115 7.28255 -4.29454 -29.3449 -125.775 44.5046 -119.046 -84.8112 4.26542 22.929 61.1841 19.9003 -78.5168 17.2441 -4.5977 -30.0189 -103.844 -47.9847 -128.787 105.33 18.3493 87.9506 
315.845 77.5652 187.461 -173.212 -21.6599 116.377 108.257 -59.6749 -2.86827 -51.2014 -40.5967 10.1106 25.4576 -15.4458 -44.0036 121.667 4.12222 -81.746 144.573 -11.542 57.6278 -127.044 -11.6729 -47.6972 130.908 -53.4907 -14.7068 -28.5254 -8.45719 8.17995 -12.4839 9.70491 -74.65 9.03983 -18.1699 31.537 -2.90793 -16.838 32.2127 -24.3128 -26.5375 25.1532 -4.30021 -26.5375 25.1532 -82.9057 77.9302 101.849 -116.023 31.0781 25.7769 -158.293 -2.36323 178.482 14.1885 -8.0257 -29.8617 -122.453 44.4272 -121.531 -83.8276 5.33884 17.8294 60.6126 18.7631 -78.6351 16.3698 -4.41474 -30.1431 -120.573 -39.7855 -138.486 101.034 26.8358 89.1129 
316.111 77.8116 187.502 -177.602 -26.2063 118.133 140.148 38.1517 -69.5144 -40.2587 -4.80277 66.4387 133.151 32.6241 -94.8482 98.7957 -17.3755 -112.602 151.416 -12.8426 62.3206 -122.631 -12.419 -43.9173 135.545 -49.7467 -10.2984 -25.4948 -6.64806 6.01478 -10.8814 11.2755 -76.9655 5.45207 -16.3809 25.9044 -6.38946 -15.2661 26.5458 -28.3776 -23.263 20.0522 -8.36492 -23.263 20.0522 163.79 59.0633 161.664 43.0284 40.7046 -129.631 -1.01167 63.0427 -53.7341 -3.28619 -0.782866 -34.336 -83.1085 33.9458 -145.147 -74.0789 17.9336 -11.962 61.4027 19.0513 -79.5716 15.637 -4.22405 -30.0292 73.6273 42.2998 -43.5863 65.3538 -13.0847 -78.2491 
